  0
SECTION
  2
HEADER
  9
$ACADVER
  1
AC1009
  9
$DWGCODEPAGE
  3
ansi_1252
  9
$INSBASE
 10
0.0
 20
0.0
 30
0.0
  9
$EXTMIN
 10
0.0
 20
-1.419350969532584
 30
0.0
  9
$EXTMAX
 10
110.5129812922267
 20
77.44661704229054
 30
0.0
  9
$LIMMIN
 10
0.0
 20
0.0
  9
$LIMMAX
 10
12.0
 20
9.0
  9
$ORTHOMODE
 70
     0
  9
$REGENMODE
 70
     1
  9
$FILLMODE
 70
     1
  9
$QTEXTMODE
 70
     0
  9
$MIRRTEXT
 70
     1
  9
$DRAGMODE
 70
     2
  9
$LTSCALE
 40
250.0
  9
$OSMODE
 70
    37
  9
$ATTMODE
 70
     1
  9
$TEXTSIZE
 40
0.2
  9
$TRACEWID
 40
0.05
  9
$TEXTSTYLE
  7
STANDARD
  9
$CLAYER
  8
0
  9
$CELTYPE
  6
BYLAYER
  9
$CECOLOR
 62
   256
  9
$DIMSCALE
 40
1.0
  9
$DIMASZ
 40
0.18
  9
$DIMEXO
 40
0.0625
  9
$DIMDLI
 40
0.38
  9
$DIMRND
 40
0.0
  9
$DIMDLE
 40
0.0
  9
$DIMEXE
 40
0.18
  9
$DIMTP
 40
0.0
  9
$DIMTM
 40
0.0
  9
$DIMTXT
 40
0.18
  9
$DIMCEN
 40
0.09
  9
$DIMTSZ
 40
0.0
  9
$DIMTOL
 70
     0
  9
$DIMLIM
 70
     0
  9
$DIMTIH
 70
     1
  9
$DIMTOH
 70
     1
  9
$DIMSE1
 70
     0
  9
$DIMSE2
 70
     0
  9
$DIMTAD
 70
     0
  9
$DIMZIN
 70
     0
  9
$DIMBLK
  1

  9
$DIMASO
 70
     1
  9
$DIMSHO
 70
     1
  9
$DIMPOST
  1

  9
$DIMAPOST
  1

  9
$DIMALT
 70
     0
  9
$DIMALTD
 70
     2
  9
$DIMALTF
 40
25.4
  9
$DIMLFAC
 40
1.0
  9
$DIMTOFL
 70
     0
  9
$DIMTVP
 40
0.0
  9
$DIMTIX
 70
     0
  9
$DIMSOXD
 70
     0
  9
$DIMSAH
 70
     0
  9
$DIMBLK1
  1

  9
$DIMBLK2
  1

  9
$DIMSTYLE
  2
STANDARD_ACAD
  9
$DIMCLRD
 70
     0
  9
$DIMCLRE
 70
     0
  9
$DIMCLRT
 70
     0
  9
$DIMTFAC
 40
1.0
  9
$DIMGAP
 40
0.09
  9
$LUNITS
 70
     2
  9
$LUPREC
 70
     3
  9
$SKETCHINC
 40
0.1
  9
$FILLETRAD
 40
0.0
  9
$AUNITS
 70
     0
  9
$AUPREC
 70
     0
  9
$MENU
  1
.
  9
$ELEVATION
 40
0.0
  9
$PELEVATION
 40
0.0
  9
$THICKNESS
 40
0.0
  9
$LIMCHECK
 70
     0
  9
$CHAMFERA
 40
0.0
  9
$CHAMFERB
 40
0.0
  9
$SKPOLY
 70
     0
  9
$TDCREATE
 40
2459880.477073889
  9
$TDUPDATE
 40
2459880.477074213
  9
$TDINDWG
 40
0.0000000116
  9
$TDUSRTIMER
 40
0.0000000116
  9
$USRTIMER
 70
     1
  9
$ANGBASE
 50
0.0
  9
$ANGDIR
 70
     0
  9
$PDMODE
 70
     0
  9
$PDSIZE
 40
0.0
  9
$PLINEWID
 40
0.0
  9
$COORDS
 70
     1
  9
$SPLFRAME
 70
     0
  9
$SPLINETYPE
 70
     6
  9
$SPLINESEGS
 70
     8
  9
$ATTDIA
 70
     0
  9
$ATTREQ
 70
     1
  9
$HANDLING
 70
     1
  9
$HANDSEED
  5
C3
  9
$SURFTAB1
 70
     6
  9
$SURFTAB2
 70
     6
  9
$SURFTYPE
 70
     6
  9
$SURFU
 70
     6
  9
$SURFV
 70
     6
  9
$UCSNAME
  2

  9
$UCSORG
 10
0.0
 20
0.0
 30
0.0
  9
$UCSXDIR
 10
1.0
 20
0.0
 30
0.0
  9
$UCSYDIR
 10
0.0
 20
1.0
 30
0.0
  9
$PUCSNAME
  2

  9
$PUCSORG
 10
0.0
 20
0.0
 30
0.0
  9
$PUCSXDIR
 10
1.0
 20
0.0
 30
0.0
  9
$PUCSYDIR
 10
0.0
 20
1.0
 30
0.0
  9
$USERI1
 70
     0
  9
$USERI2
 70
     0
  9
$USERI3
 70
     0
  9
$USERI4
 70
     0
  9
$USERI5
 70
     0
  9
$USERR1
 40
0.0
  9
$USERR2
 40
0.0
  9
$USERR3
 40
0.0
  9
$USERR4
 40
0.0
  9
$USERR5
 40
0.0
  9
$WORLDVIEW
 70
     1
  9
$SHADEDGE
 70
     3
  9
$SHADEDIF
 70
    70
  9
$TILEMODE
 70
     1
  9
$MAXACTVP
 70
    64
  9
$PLIMCHECK
 70
     0
  9
$PEXTMIN
 10
1.000000000000000E+20
 20
1.000000000000000E+20
 30
1.000000000000000E+20
  9
$PEXTMAX
 10
-1.000000000000000E+20
 20
-1.000000000000000E+20
 30
-1.000000000000000E+20
  9
$PLIMMIN
 10
0.0
 20
0.0
  9
$PLIMMAX
 10
12.0
 20
9.0
  9
$UNITMODE
 70
     0
  9
$VISRETAIN
 70
     1
  9
$PLINEGEN
 70
     0
  9
$PSLTSCALE
 70
     1
  0
ENDSEC
  0
SECTION
  2
TABLES
  0
TABLE
  2
VPORT
 70
     1
  0
VPORT
  2
*ACTIVE
 70
     0
 10
0.0
 20
0.0
 11
1.0
 21
1.0
 12
10.42990654205607
 22
4.5
 13
0.0
 23
0.0
 14
0.5
 24
0.5
 15
0.5
 25
0.5
 16
0.0
 26
0.0
 36
1.0
 17
0.0
 27
0.0
 37
0.0
 40
9.0
 41
1.972972972850329
 42
50.0
 43
0.0
 44
0.0
 50
0.0
 51
0.0
 71
     0
 72
   100
 73
     1
 74
     3
 75
     0
 76
     0
 77
     0
 78
     0
  0
ENDTAB
  0
TABLE
  2
LTYPE
 70
     1
  0
LTYPE
  2
CONTINUOUS
 70
     0
  3
Solid line
 72
    65
 73
     0
 40
0.0
  0
ENDTAB
  0
TABLE
  2
LAYER
 70
     2
  0
LAYER
  2
0
 70
     0
 62
     7
  6
CONTINUOUS
  0
LAYER
  2
LAYER_02
 70
     0
 62
   192
  6
CONTINUOUS
  0
ENDTAB
  0
TABLE
  2
STYLE
 70
     1
  0
STYLE
  2
STANDARD
 70
     0
 40
0.0
 41
1.0
 50
0.0
 71
     0
 42
0.2
  3
txt
  4

  0
ENDTAB
  0
TABLE
  2
VIEW
 70
     0
  0
ENDTAB
  0
TABLE
  2
UCS
 70
     0
  0
ENDTAB
  0
TABLE
  2
APPID
 70
     2
  0
APPID
  2
ACAD
 70
     0
  0
APPID
  2
RHINO
 70
     0
  0
ENDTAB
  0
TABLE
  2
DIMSTYLE
 70
     1
  0
DIMSTYLE
  2
STANDARD_ACAD
 70
     0
  3

  4

  5

  6

  7

 40
1.0
 41
0.18
 42
0.0625
 43
0.38
 44
0.18
 45
0.0
 46
0.0
 47
0.0
 48
0.0
140
0.18
141
0.09
142
0.0
143
25.4
144
1.0
145
0.0
146
1.0
147
0.09
 71
     0
 72
     0
 73
     1
 74
     1
 75
     0
 76
     0
 77
     0
 78
     0
170
     0
171
     2
172
     0
173
     0
174
     0
175
     0
176
     0
177
     0
178
     0
  0
ENDTAB
  0
ENDSEC
  0
SECTION
  2
BLOCKS
  0
BLOCK
  8
0
  2
$MODEL_SPACE
 70
     0
 10
0.0
 20
0.0
 30
0.0
  3
$MODEL_SPACE
  1

  0
ENDBLK
  5
21
  8
0
  0
BLOCK
 67
     1
  8
0
  2
$PAPER_SPACE
 70
     0
 10
0.0
 20
0.0
 30
0.0
  3
$PAPER_SPACE
  1

  0
ENDBLK
  5
1D
 67
     1
  8
0
  0
ENDSEC
  0
SECTION
  2
ENTITIES
  0
POLYLINE
  5
5F
  8
0
 66
     1
 10
0.0
 20
0.0
 30
0.0
 70
     1
  0
VERTEX
  5
60
  8
0
 10
33.76771047364456
 20
59.77188912278373
 30
0.0
  0
VERTEX
  5
61
  8
0
 10
52.46213423466134
 20
59.77188912278373
 30
0.0
  0
VERTEX
  5
62
  8
0
 10
52.46213423466134
 20
77.44661704229054
 30
0.0
  0
VERTEX
  5
63
  8
0
 10
33.76771047364456
 20
77.44661704229054
 30
0.0
  0
SEQEND
  5
64
  8
0
  0
CIRCLE
  5
65
  8
0
 10
88.83128591518492
 20
34.6193916988702
 30
0.0
 40
21.68169537704178
  0
POLYLINE
  5
67
  8
LAYER_02
 66
     1
 10
0.0
 20
0.0
 30
0.0
 70
     1
  0
VERTEX
  5
68
  8
LAYER_02
 10
15.8928528231302
 20
15.35714717687133
 30
0.0
  0
VERTEX
  5
69
  8
LAYER_02
 10
16.04299756281
 20
15.3698597758764
 30
0.0
  0
VERTEX
  5
6A
  8
LAYER_02
 10
16.17720430671172
 20
15.42732475512169
 30
0.0
 42
0.4514333866619056
  0
VERTEX
  5
6B
  8
LAYER_02
 10
16.16018277920362
 20
15.69447832230911
 30
0.0
  0
VERTEX
  5
6C
  8
LAYER_02
 10
16.01761016241784
 20
15.72886155589029
 30
0.0
  0
VERTEX
  5
6D
  8
LAYER_02
 10
15.98337811931168
 20
15.72199498854028
 30
0.0
  0
VERTEX
  5
6E
  8
LAYER_02
 10
15.94791135400047
 20
15.71713169496523
 30
0.0
  0
VERTEX
  5
6F
  8
LAYER_02
 10
15.87450837897711
 20
15.71459925452922
 30
0.0
  0
VERTEX
  5
70
  8
LAYER_02
 10
15.58709528829852
 20
15.81011383634673
 30
0.0
 42
-1.123199929259272
  0
VERTEX
  5
71
  8
LAYER_02
 10
16.29141611045434
 20
16.60795856574601
 30
0.0
  0
VERTEX
  5
72
  8
LAYER_02
 10
16.42212027504399
 20
16.33290529630355
 30
0.0
  0
VERTEX
  5
73
  8
LAYER_02
 10
16.42455192183305
 20
16.18449924706972
 30
0.0
  0
VERTEX
  5
74
  8
LAYER_02
 10
16.41821452113798
 20
16.04154865410096
 30
0.0
 42
0.4486143177867509
  0
VERTEX
  5
75
  8
LAYER_02
 10
16.65917433874228
 20
15.92772742575139
 30
0.0
  0
VERTEX
  5
76
  8
LAYER_02
 10
16.75935062683482
 20
16.03706333671194
 30
0.0
  0
VERTEX
  5
77
  8
LAYER_02
 10
16.78322612248897
 20
16.18345351296074
 30
0.0
  0
VERTEX
  5
78
  8
LAYER_02
 10
16.78570816609998
 20
16.33395103041254
 30
0.0
  0
VERTEX
  5
79
  8
LAYER_02
 10
16.78570816609998
 20
16.78572076530699
 30
0.0
  0
VERTEX
  5
7A
  8
LAYER_02
 10
33.21427923469302
 20
16.78572076530699
 30
0.0
  0
VERTEX
  5
7B
  8
LAYER_02
 10
33.21427923469302
 20
16.28370539628926
 30
0.0
  0
VERTEX
  5
7C
  8
LAYER_02
 10
33.22427040516907
 20
16.11682891084439
 30
0.0
  0
VERTEX
  5
7D
  8
LAYER_02
 10
33.24093915490516
 20
16.03620659069597
 30
0.0
  0
VERTEX
  5
7E
  8
LAYER_02
 10
33.28441901532538
 20
15.96570143308459
 30
0.0
  0
VERTEX
  5
7F
  8
LAYER_02
 10
33.44107754458625
 20
15.9161991521233
 30
0.0
  0
VERTEX
  5
80
  8
LAYER_02
 10
33.57067297903491
 20
16.01315004344285
 30
0.0
  0
VERTEX
  5
81
  8
LAYER_02
 10
33.58905522080904
 20
16.09583863339826
 30
0.0
  0
VERTEX
  5
82
  8
LAYER_02
 10
33.57688438766898
 20
16.17370172740271
 30
0.0
 42
-3.005378366573003
  0
VERTEX
  5
83
  8
LAYER_02
 10
34.0308337852244
 20
15.71975232984423
 30
0.0
  0
VERTEX
  5
84
  8
LAYER_02
 10
33.95297069122299
 20
15.73191056378034
 30
0.0
  0
VERTEX
  5
85
  8
LAYER_02
 10
33.87026950205752
 20
15.7135283220062
 30
0.0
  0
VERTEX
  5
86
  8
LAYER_02
 10
33.77333120994499
 20
15.58392028835053
 30
0.0
  0
VERTEX
  5
87
  8
LAYER_02
 10
33.82287128852427
 20
15.4272491598857
 30
0.0
  0
VERTEX
  5
88
  8
LAYER_02
 10
33.89338904534267
 20
15.38378189866945
 30
0.0
  0
VERTEX
  5
89
  8
LAYER_02
 10
33.97401136549109
 20
15.36712574814036
 30
0.0
  0
VERTEX
  5
8A
  8
LAYER_02
 10
34.140875251732
 20
15.35714717687133
 30
0.0
  0
VERTEX
  5
8B
  8
LAYER_02
 10
34.64285282312868
 20
15.35714717687133
 30
0.0
  0
VERTEX
  5
8C
  8
LAYER_02
 10
34.64285282312868
 20
-1.419350969532582
 30
0.0
  0
VERTEX
  5
8D
  8
LAYER_02
 10
35.47618951625014
 20
-1.419350969532582
 30
0.0
  0
VERTEX
  5
8E
  8
LAYER_02
 10
35.47618951625014
 20
-1.121732521877008
 30
0.0
  0
VERTEX
  5
8F
  8
LAYER_02
 10
35.00000251983958
 20
-1.121732521877008
 30
0.0
  0
VERTEX
  5
90
  8
LAYER_02
 10
35.00000251983958
 20
-0.4074457276591769
 30
0.0
  0
VERTEX
  5
91
  8
LAYER_02
 10
37.73809979780727
 20
-0.4074457276591769
 30
0.0
  0
VERTEX
  5
92
  8
LAYER_02
 10
37.73809979780727
 20
-1.121732521877008
 30
0.0
  0
VERTEX
  5
93
  8
LAYER_02
 10
37.26190020219274
 20
-1.121732521877008
 30
0.0
  0
VERTEX
  5
94
  8
LAYER_02
 10
37.26190020219274
 20
-1.419350969532582
 30
0.0
  0
VERTEX
  5
95
  8
LAYER_02
 10
38.0952368953142
 20
-1.419350969532582
 30
0.0
  0
VERTEX
  5
96
  8
LAYER_02
 10
38.0952368953142
 20
0.0
 30
0.0
  0
VERTEX
  5
97
  8
LAYER_02
 10
50.00000000000001
 20
0.0
 30
0.0
  0
VERTEX
  5
98
  8
LAYER_02
 10
50.00000000000001
 20
1.071436490928729
 30
0.0
  0
VERTEX
  5
99
  8
LAYER_02
 10
35.7142893140574
 20
1.071436490928729
 30
0.0
  0
VERTEX
  5
9A
  8
LAYER_02
 10
35.7142893140574
 20
24.7731302974355
 30
0.0
  0
VERTEX
  5
9B
  8
LAYER_02
 10
33.21427923469302
 20
24.7731302974355
 30
0.0
  0
VERTEX
  5
9C
  8
LAYER_02
 10
33.21427923469302
 20
32.1428553429713
 30
0.0
  0
VERTEX
  5
9D
  8
LAYER_02
 10
31.96428679421631
 20
32.1428553429713
 30
0.0
  0
VERTEX
  5
9E
  8
LAYER_02
 10
31.96428679421631
 20
24.7731302974355
 30
0.0
  0
VERTEX
  5
9F
  8
LAYER_02
 10
14.28571068593955
 20
24.7731302974355
 30
0.0
  0
VERTEX
  5
A0
  8
LAYER_02
 10
14.28571068593955
 20
1.071436490928729
 30
0.0
  0
VERTEX
  5
A1
  8
LAYER_02
 10
0.0
 20
1.071436490928729
 30
0.0
  0
VERTEX
  5
A2
  8
LAYER_02
 10
0.0
 20
0.0
 30
0.0
  0
VERTEX
  5
A3
  8
LAYER_02
 10
11.9047631046858
 20
0.0
 30
0.0
  0
VERTEX
  5
A4
  8
LAYER_02
 10
11.9047631046858
 20
-1.419350969532582
 30
0.0
  0
VERTEX
  5
A5
  8
LAYER_02
 10
12.73809979780727
 20
-1.419350969532582
 30
0.0
  0
VERTEX
  5
A6
  8
LAYER_02
 10
12.73809979780727
 20
-1.121732521877008
 30
0.0
  0
VERTEX
  5
A7
  8
LAYER_02
 10
12.26190020219274
 20
-1.121732521877008
 30
0.0
  0
VERTEX
  5
A8
  8
LAYER_02
 10
12.26190020219274
 20
-0.4074457276591769
 30
0.0
  0
VERTEX
  5
A9
  8
LAYER_02
 10
14.99999748015738
 20
-0.4074457276591769
 30
0.0
  0
VERTEX
  5
AA
  8
LAYER_02
 10
14.99999748015738
 20
-1.121732521877008
 30
0.0
  0
VERTEX
  5
AB
  8
LAYER_02
 10
14.52381048374986
 20
-1.121732521877008
 30
0.0
  0
VERTEX
  5
AC
  8
LAYER_02
 10
14.52381048374986
 20
-1.419350969532582
 30
0.0
  0
VERTEX
  5
AD
  8
LAYER_02
 10
15.35714717687133
 20
-1.419350969532582
 30
0.0
  0
VERTEX
  5
AE
  8
LAYER_02
 10
15.35714717687133
 20
15.35714717687133
 30
0.0
  0
SEQEND
  5
AF
  8
LAYER_02
  0
POLYLINE
  5
B0
  8
LAYER_02
 66
     1
 10
0.0
 20
0.0
 30
0.0
 70
     1
  0
VERTEX
  5
B1
  8
LAYER_02
 10
16.0269496783039
 20
18.08990266738877
 30
0.0
  0
VERTEX
  5
B2
  8
LAYER_02
 10
24.28881597750929
 20
18.08990266738877
 30
0.0
  0
VERTEX
  5
B3
  8
LAYER_02
 10
24.28881597750929
 20
23.77245460976907
 30
0.0
  0
VERTEX
  5
B4
  8
LAYER_02
 10
16.0269496783039
 20
23.77245460976907
 30
0.0
  0
SEQEND
  5
B5
  8
LAYER_02
  0
POLYLINE
  5
B6
  8
LAYER_02
 66
     1
 10
0.0
 20
0.0
 30
0.0
 70
     1
  0
VERTEX
  5
B7
  8
LAYER_02
 10
33.9730377224891
 20
18.08990266738877
 30
0.0
  0
VERTEX
  5
B8
  8
LAYER_02
 10
25.71117142328371
 20
18.08990266738877
 30
0.0
  0
VERTEX
  5
B9
  8
LAYER_02
 10
25.71117142328371
 20
23.77245460976907
 30
0.0
  0
VERTEX
  5
BA
  8
LAYER_02
 10
33.9730377224891
 20
23.77245460976907
 30
0.0
  0
SEQEND
  5
BB
  8
LAYER_02
  0
ENDSEC
  0
EOF
